<svg width="204" height="121" viewBox="0 0 204 121" fill="none" xmlns="http://www.w3.org/2000/svg">
<g clip-path="url(#clip0_61_171)">
<path d="M89.3221 34.8655C88.8611 35.2397 88.6305 35.5515 88.7458 35.6763C88.9187 35.801 89.5526 36.1752 90.1865 36.5495C91.2814 37.1732 91.339 37.9216 91.339 46.8407C91.339 56.1964 91.2814 56.4459 90.0712 57.0696C89.3221 57.3814 88.7458 58.0051 88.7458 58.4417C88.7458 59.0031 89.956 59.2526 93.0678 59.2526C96.4102 59.2526 97.3899 59.0655 97.3899 58.3794C97.3899 57.8804 96.8136 57.3814 96.1221 57.2567C94.7966 57.0696 94.7966 56.9448 94.6238 45.9675C94.5085 35.9881 94.3933 34.9278 93.4712 34.9278C92.9526 34.9278 91.9729 34.7407 91.339 34.616C90.7051 34.4289 89.7831 34.5536 89.3221 34.8655Z" fill="white"/>
<path d="M121.42 35.3644C121.19 35.5515 121.017 36.8613 121.017 38.1711C121.017 40.4165 120.902 40.5412 119.288 40.5412C117.963 40.5412 117.559 40.8531 117.559 41.7263C117.559 42.5995 118.02 43.0361 119.173 43.1608L120.729 43.3479L121.017 50.2711C121.42 58.4417 121.766 59.2526 125.454 59.2526C128.451 59.2526 129.834 58.0675 129.546 55.6974C129.315 53.5144 128.451 53.5768 127.471 55.7598C126.492 57.8804 124.82 57.8804 123.956 55.635C123.207 53.7015 123.264 44.9696 124.071 43.7845C124.359 43.4103 125.742 43.0361 127.183 43.0361C129.315 43.0361 129.719 42.849 129.546 41.9134C129.431 41.1026 128.681 40.7907 126.319 40.666L123.322 40.4789V37.6721C123.322 35.0526 122.515 34.117 121.42 35.3644Z" fill="white"/>
<path d="M5.18644 41.1649C5.18644 41.4768 4.84068 41.7887 4.43729 41.7887C3.57288 41.7887 1.90169 43.7222 0.749151 45.9675C-0.115255 47.6515 -0.23051 52.766 0.57627 53.3273C0.922033 53.5144 1.15254 54.1381 1.15254 54.6371C1.15254 55.1361 1.61356 56.0716 2.1322 56.6954C4.14915 58.9407 5.99322 59.5021 11.0644 59.3149C14.5797 59.1902 19.5356 53.6392 16.1356 53.6392C15.5017 53.6392 14.1763 54.45 13.139 55.5103C10.0847 58.6912 5.93559 57.6933 3.57288 53.2026C2.7661 51.5186 2.65085 47.4021 3.45763 47.4021C3.80339 47.4021 4.0339 46.9031 4.0339 46.2794C4.0339 44.7825 6.91525 43.0361 9.45085 43.0361C10.9492 43.0361 11.9864 43.4727 13.0237 44.5954C14.3492 46.0299 17.2881 46.7783 17.2881 45.6557C17.2881 44.9696 14.8102 42.1629 13.4271 41.2897C11.8712 40.4165 5.18644 40.2917 5.18644 41.1649Z" fill="white"/>
<path d="M24.2033 41.6639C21.1491 43.9093 20.1694 45.8428 20.1694 49.9593C20.1694 53.5768 20.8033 55.1361 23.2813 57.5062C24.8949 59.0655 25.5288 59.2526 29.1016 59.2526C32.7321 59.2526 33.3084 59.0655 35.0372 57.4438C39.3593 53.3273 38.7254 44.533 33.9423 41.6015C31.6372 40.2294 26.1627 40.2294 24.2033 41.6639ZM33.1355 44.5953C34.3457 45.9675 34.5762 46.7783 34.5762 49.9593C34.5762 53.3897 34.4033 53.951 32.7898 55.5727C28.122 60.2505 22.0711 55.0737 23.6271 47.6515C24.261 44.5953 26.105 43.0361 29.1593 43.0361C31.061 43.0361 31.983 43.4103 33.1355 44.5953Z" fill="white"/>
<path d="M39.7627 41.7263C39.7627 42.6618 40.1085 43.0361 41.0881 43.0361C43.3932 43.0361 43.7966 44.1587 43.7966 50.2087C43.7966 56.2587 43.3932 57.3814 41.0881 57.3814C40.2813 57.3814 39.7627 57.7557 39.7627 58.317C39.7627 59.0655 40.7424 59.2526 44.9491 59.2526C49.1559 59.2526 50.1356 59.0655 50.1356 58.317C50.1356 57.818 49.6169 57.3814 49.0407 57.3814C46.4474 57.3814 46.1017 56.8201 46.1017 52.3917C46.1017 45.718 47.5424 43.0361 51.0576 43.0361C52.6135 43.0361 53.0169 42.7866 53.0169 41.7886C53.0169 39.9175 49.9051 40.1046 47.9457 42.1005L46.3898 43.6598L46.1017 42.2876C45.8135 41.0402 45.3525 40.8531 42.7593 40.666C40.0508 40.4789 39.7627 40.6036 39.7627 41.7263Z" fill="white"/>
<path d="M55.322 41.7886C55.322 42.7242 55.7254 43.0361 56.7627 43.0361H58.2034V50.2087V57.3814H56.7627C55.8407 57.3814 55.322 57.7557 55.322 58.317C55.322 59.0655 56.2441 59.2526 60.2203 59.2526C64.1966 59.2526 65.1186 59.0655 65.1186 58.317C65.1186 57.818 64.6 57.3814 64.0237 57.3814C61.4305 57.3814 61.0847 56.8201 61.0847 52.3294C61.0847 46.3417 62.8712 43.0361 66.0983 43.0361C67.5966 43.0361 68 42.7866 68 41.7886C68 40.7907 67.5966 40.5412 66.1559 40.5412C64.139 40.6036 62.2373 41.7886 62.2373 42.9737C62.2373 43.4103 62.0068 43.535 61.661 43.3479C61.3729 43.1608 61.0847 42.4124 61.0847 41.7263C61.0847 40.7283 60.6813 40.5412 58.2034 40.5412C55.7254 40.5412 55.322 40.7283 55.322 41.7886Z" fill="white"/>
<path d="M72.7254 42.163C67.0204 47.0279 68.5763 57.5686 75.261 59.2527C77.7966 59.9387 82.9254 59.3774 83.8475 58.3795C84.1932 58.0052 84.9424 56.9449 85.5187 56.0094C86.4407 54.4501 86.4983 54.263 85.6339 53.8887C85.0576 53.6392 84.078 54.2006 82.9254 55.448C81.4848 57.0697 80.7356 57.3815 78.5458 57.3815C76.356 57.3815 75.6068 57.0697 74.2814 55.5104C73.3593 54.4501 72.6102 52.9532 72.6102 52.08V50.5207H79.8712H87.1322L86.7288 48.4624C86.1526 45.0944 84.539 42.0382 83.0407 41.2898C82.2339 40.8532 80.0441 40.5413 78.1424 40.5413C75.261 40.5413 74.2814 40.8532 72.7254 42.163ZM82.2915 44.6578C82.9831 45.531 83.5593 46.7784 83.5593 47.4645C83.5593 48.5872 83.2136 48.7119 78.2576 48.5248C72.3797 48.3377 71.5729 47.6516 73.7051 44.9697C75.9526 42.163 80.1017 42.0382 82.2915 44.6578Z" fill="white"/>
<path d="M101.885 42.4124C99.8678 44.7825 99.8101 46.1546 101.712 46.1546C102.519 46.1546 103.153 45.9051 103.153 45.5933C103.153 42.9113 109.146 42.0381 111.22 44.4082C112.488 45.9051 112.776 48.0258 111.681 48.0881C104.363 48.5247 101.539 49.2108 100.559 50.7077C99.3491 52.5789 99.4644 55.6974 100.905 57.6309C101.942 59.0655 102.461 59.2526 105.63 59.2526C109.146 59.1902 111.22 58.317 111.22 56.8201C111.22 56.3835 111.508 56.2587 111.797 56.4459C112.142 56.633 112.373 57.3814 112.373 58.0675C112.373 59.0655 112.776 59.2526 115.254 59.2526C117.444 59.2526 118.136 59.0031 118.136 58.317C118.136 57.7557 117.617 57.3814 116.695 57.3814C115.254 57.3814 115.254 57.3191 115.254 52.267C115.254 46.0923 114.159 42.4124 111.969 41.2897C111.105 40.9154 108.858 40.5412 106.956 40.5412C103.786 40.5412 103.268 40.7283 101.885 42.4124ZM112.373 51.0819C112.373 52.0799 110.759 54.949 109.549 56.1964C107.878 57.8804 104.651 57.7557 103.498 56.0093C102.346 54.2005 102.346 53.5768 103.614 51.8928C104.42 50.7701 105.169 50.5206 108.512 50.5206C110.644 50.5206 112.373 50.7701 112.373 51.0819Z" fill="white"/>
<path d="M132.542 41.7263C132.542 42.7242 132.888 43.0361 133.983 43.0361H135.481L135.308 50.0216C135.136 56.8201 135.078 57.0696 133.868 57.2567C133.119 57.3814 132.542 57.8804 132.542 58.3794C132.542 59.0655 133.522 59.2526 136.864 59.2526C140.322 59.2526 141.186 59.0655 141.186 58.317C141.186 57.818 140.668 57.3814 140.034 57.3814C138.593 57.3814 138.363 56.1964 138.132 47.7139L138.017 40.8531L135.308 40.666C132.83 40.4789 132.542 40.6036 132.542 41.7263Z" fill="white"/>
<path d="M147.525 41.6639C145.22 43.3479 144.183 45.0319 143.78 47.7763C143.261 51.7057 144.241 55.2608 146.488 57.3814C148.159 59.0031 148.851 59.2526 152.02 59.2526C154.037 59.2526 156.227 58.9407 156.919 58.5665C162.393 55.4479 162.854 46.4041 157.725 42.1629C156.112 40.8531 155.132 40.5412 152.366 40.6036C150.176 40.6036 148.447 40.9778 147.525 41.6639ZM156.4 44.5953C160.376 48.899 157.725 57.3814 152.424 57.3814C151.041 57.3814 149.831 56.8201 148.678 55.6974C147.122 54.2005 146.949 53.7015 146.949 50.084C146.949 46.6536 147.18 45.8428 148.39 44.5953C150.349 42.4124 154.383 42.4124 156.4 44.5953Z" fill="white"/>
<path d="M163.661 41.7263C163.661 42.5371 164.122 43.0361 164.986 43.1608C166.197 43.3479 166.254 43.5974 166.254 50.2087V57.0696L164.698 57.2567C163.776 57.3814 163.085 57.818 163.085 58.3794C163.085 59.0655 164.064 59.2526 167.695 59.2526C171.268 59.2526 172.305 59.0655 172.305 58.3794C172.305 57.8804 171.671 57.3191 170.864 57.1319C169.481 56.7577 169.424 56.5706 169.424 51.5809C169.424 46.9655 169.539 46.2794 170.864 44.7201C172.651 42.6618 175.532 42.4747 177.434 44.2211C178.586 45.2814 178.702 45.9051 178.529 51.2691C178.356 56.7577 178.298 57.0696 177.088 57.2567C176.339 57.3814 175.763 57.8804 175.763 58.3794C175.763 59.0655 176.742 59.2526 180.085 59.2526C183.369 59.2526 184.407 59.0655 184.407 58.3794C184.407 57.8804 183.773 57.3191 182.966 57.1319C181.525 56.7577 181.525 56.633 181.525 50.084C181.525 43.6598 181.468 43.4727 179.969 42.0381C178.702 40.8531 177.664 40.5412 175.359 40.5412C173.688 40.5412 172.305 40.7907 172.305 41.1649C172.305 41.4768 171.902 41.7886 171.441 41.7886C170.98 41.7886 170.576 42.0381 170.576 42.4124C170.576 42.7242 170.346 43.0361 170 43.0361C169.712 43.0361 169.424 42.4747 169.424 41.7886C169.424 40.7283 169.02 40.5412 166.542 40.5412C164.064 40.5412 163.661 40.7283 163.661 41.7263Z" fill="white"/>
<path d="M199.505 41.5392C198.237 43.0985 198.929 44.5954 201.003 44.7825C202.559 44.9696 202.847 44.7825 202.847 43.6598C202.847 42.35 201.637 40.5413 200.715 40.5413C200.485 40.6036 199.908 40.9779 199.505 41.5392Z" fill="white"/>
<path d="M194.549 48.3377C192.936 49.6474 193.858 51.7681 195.99 51.7681C197.373 51.7681 197.661 51.5186 197.661 50.2088C197.661 48.2129 195.99 47.215 194.549 48.3377Z" fill="white"/>
<path d="M188.729 56.134C188.325 57.5685 189.305 59.2526 190.458 59.2526C191.61 59.2526 192.59 57.5685 192.186 56.134C191.956 55.3232 191.322 54.8866 190.458 54.8866C189.593 54.8866 188.959 55.3232 188.729 56.134Z" fill="white"/>
<path d="M147.814 67.1738C144.875 68.7331 143.837 70.8537 143.837 75.4068C143.78 80.2093 144.932 82.8289 147.698 84.2011C149.888 85.2614 156.861 85.3238 157.207 84.2635C157.322 83.8892 157.725 83.5774 158.129 83.5774C159.224 83.5774 161.356 78.7124 161.356 76.2176C161.356 73.8475 160.319 69.9805 159.339 68.8578C157.034 66.2382 151.214 65.4274 147.814 67.1738ZM153.576 68.6083C153.749 68.9202 154.325 69.232 154.844 69.232C157.322 69.232 158.993 74.4088 157.841 78.6501C156.803 82.3923 152.885 84.0764 149.658 82.2052C147.525 81.0202 147.007 79.7104 146.949 75.7186C146.949 71.4774 147.756 70.0428 150.695 68.7954C153 67.8599 153.173 67.8599 153.576 68.6083Z" fill="white"/>
<path d="M163.776 66.8619C162.912 67.7975 163.949 69.232 165.447 69.232C166.427 69.232 166.542 69.7934 166.542 75.781C166.542 81.7686 166.427 82.33 165.447 82.33C164.237 82.33 162.854 83.7645 163.488 84.3882C163.661 84.6377 165.736 84.8248 168.098 84.8248C171.902 84.8248 172.305 84.7001 172.305 83.5774C172.305 82.6418 171.902 82.33 170.864 82.33C169.424 82.33 169.424 82.2676 169.424 77.2779C169.424 71.6021 169.885 70.2924 172.363 68.9202C174.264 67.7975 175.59 68.047 177.434 69.7934C178.471 70.7913 178.644 71.6021 178.644 76.5918C178.644 82.0805 178.586 82.2052 177.203 82.5795C176.397 82.829 175.763 83.3903 175.763 83.8893C175.763 84.6377 176.627 84.8248 180.085 84.8248C184.003 84.8248 184.407 84.7001 184.407 83.5774C184.407 82.6418 184.003 82.33 182.966 82.33H181.525V75.8434C181.525 69.731 181.468 69.2944 180.027 67.7351C178.759 66.4253 177.953 66.1135 175.647 66.1135C174.091 66.1135 172.42 66.4877 171.959 66.8619C171.498 67.2985 170.749 68.047 170.288 68.4836C169.539 69.1697 169.424 69.1073 169.424 67.7351C169.424 66.2382 169.251 66.1135 166.946 66.1135C165.563 66.1135 164.18 66.4253 163.776 66.8619Z" fill="white"/>
<path d="M190.458 67.2985C187.576 69.1696 186.712 71.1655 186.712 75.9057C186.712 79.7104 186.885 80.3964 188.383 82.3299C190.63 85.3238 194.492 86.5712 197.834 85.3861C200.946 84.2634 202.847 82.4547 202.847 80.6459C202.847 78.7748 201.695 78.8372 200.312 80.7707C199.736 81.5815 198.41 82.5794 197.373 82.9537C193.8 84.2011 189.075 80.8954 189.708 77.5897C189.939 76.2799 189.536 76.3423 197.834 76.2176L204 76.0928V73.9098C204 72.7248 203.769 71.7268 203.424 71.7268C203.136 71.7268 202.847 71.2902 202.847 70.7289C202.847 69.6686 202.156 68.7954 199.966 67.1738C198.007 65.6768 192.763 65.7392 190.458 67.2985ZM197.2 68.733C198.814 69.731 199.505 70.4794 200.369 72.1634C201.292 73.9098 200.542 74.2217 194.722 74.2217C189.824 74.2217 188.556 73.4109 190.4 71.415C190.919 70.8537 191.322 70.1676 191.322 69.9181C191.322 69.4191 193.973 68.1717 195.241 68.0469C195.644 67.9846 196.508 68.3588 197.2 68.733Z" fill="white"/>
</g>
<defs>
<clipPath id="clip0_61_171">
<rect width="204" height="121" fill="white"/>
</clipPath>
</defs>
</svg>
