<svg width="163" height="70" viewBox="0 0 163 70" fill="none" xmlns="http://www.w3.org/2000/svg">
<g filter="url(#filter0_dd_63_153)">
<path d="M75.2 1.10926C74.524 1.37476 73.432 1.46326 72.756 1.28626C72.132 1.15351 71.456 1.24201 71.3 1.50751C71.144 1.72876 71.352 1.95001 71.768 1.95001C72.236 1.95001 72.6 2.12701 72.6 2.39251C72.6 2.61376 72.236 2.83501 71.82 2.83501C70.676 2.83501 70.884 3.63151 72.132 3.94126C72.86 4.16251 73.588 3.94126 74.316 3.41026C74.94 2.92351 76.032 2.12701 76.708 1.59601C78.112 0.534009 77.436 0.357009 75.2 1.10926Z" fill="#FFD200"/>
<path d="M78.684 4.64925C77.592 5.18025 78.008 5.9325 79.412 5.9325C80.036 5.9325 80.4 5.62275 80.4 5.0475C80.4 4.074 80.036 3.9855 78.684 4.64925Z" fill="#FFD200"/>
<path d="M70.3121 6.15375C69.8441 6.77325 69.0641 7.26 68.6481 7.26C67.9721 7.26 67.9201 7.39275 68.3881 7.8795C68.8561 8.36625 68.7001 8.7645 67.6601 9.69375C66.1001 11.154 66.0481 11.7292 67.2961 12.7027C69.1681 14.163 70.2601 13.632 70.0001 11.4637C69.9481 10.8 70.0521 10.7115 70.5201 11.1097C70.8841 11.3752 71.5081 11.508 71.9761 11.331C72.6001 11.154 72.7041 11.2867 72.4441 11.862C72.2361 12.3045 72.0801 13.0125 72.0801 13.455C72.0801 13.9417 71.5601 14.694 70.9361 15.225L69.7921 16.11L71.6121 16.1542L73.3801 16.1985L71.5601 16.8622L69.7921 17.526L71.0401 18.3225C71.7681 18.765 72.4961 19.0747 72.6521 18.942C72.8601 18.8535 74.2121 18.6765 75.6681 18.5437C77.8001 18.3667 78.3201 18.4552 78.3201 18.9862C78.3201 19.7827 79.1521 19.827 81.3881 19.1632C82.2721 18.8977 83.0001 18.3667 83.0001 18.0127C83.0001 17.5702 83.4681 17.4375 84.4561 17.526C85.4961 17.6145 85.8081 17.88 85.7041 18.4552C85.5481 19.1632 85.7041 19.2075 86.7441 18.7207C87.4201 18.411 89.0841 18.1012 90.5401 18.057C91.9441 18.0127 93.1921 17.7472 93.2961 17.4817C93.4001 17.2162 93.7121 17.0835 93.9721 17.2605C94.2321 17.3932 94.7001 16.995 95.0641 16.3755C95.3761 15.756 96.0001 15.225 96.4681 15.225C97.1441 15.1807 97.1441 15.1365 96.3641 14.7382C95.7401 14.4285 95.5841 14.0745 95.8961 13.7647C96.9881 12.6142 97.0401 7.7025 96.0001 7.7025C95.7921 7.7025 95.0121 8.18925 94.2321 8.80875C93.4521 9.42825 92.4121 9.915 91.9441 9.915C91.1121 9.95925 91.1641 9.95925 91.9961 10.4017C92.4641 10.6672 92.7761 11.0212 92.6201 11.2867C92.2041 11.8177 89.7601 11.8177 89.7601 11.2867C89.7601 11.0212 89.1361 11.0212 88.3561 11.1982C86.5881 11.5522 84.4561 11.331 84.8201 10.7557C85.0281 10.5345 84.7161 10.3575 84.2481 10.3575C83.5201 10.3575 83.6241 10.092 84.8201 9.03L86.2761 7.74675L83.6241 8.01225C81.2321 8.2335 80.9201 8.18925 80.9201 7.437C80.8681 6.6405 80.8681 6.6405 80.3481 7.3485C79.7241 8.27775 78.4241 8.4105 78.0601 7.56975C77.6961 6.8175 74.8881 6.729 74.1601 7.48125C73.4841 8.18925 72.1321 8.36625 72.0281 7.791C72.0281 7.614 71.9241 7.12725 71.8201 6.68475C71.7161 6.2865 71.8721 5.9325 72.1321 5.9325C72.4441 5.9325 72.4961 5.71125 72.3401 5.49C71.8201 4.782 71.1961 4.959 70.3121 6.15375Z" fill="#FFD200"/>
<path d="M14.828 30.1373C14.048 30.2258 12.176 30.978 10.668 31.7303C6.09205 34.0313 3.02405 39.5625 4.32405 42.9698C4.89605 44.4743 7.75605 46.2 9.62805 46.2C11.396 46.2 14.204 44.7398 16.284 42.7485L17.948 41.1113L17.844 43.3238C17.74 45.4035 17.844 45.5363 18.988 45.5363C19.664 45.5363 20.392 45.2265 20.6 44.8725C20.964 44.253 23.772 32.571 23.928 31.155C23.98 30.7125 23.46 30.4913 22.42 30.447C21.588 30.4028 19.82 30.27 18.52 30.1373C17.22 30.0045 15.556 30.0045 14.828 30.1373ZM19.872 32.1285C20.288 32.4825 18.52 38.3235 17.428 40.3148C15.868 43.0583 12.436 44.5628 10.044 43.5008C8.43205 42.7485 8.12005 42.2618 8.12005 40.0935C8.12005 36.7305 10.356 33.456 13.58 32.217C14.984 31.6418 19.248 31.5975 19.872 32.1285Z" fill="white"/>
<path d="M34.9521 30.4912C34.1201 30.8895 33.1321 31.509 32.7681 31.9515C30.4801 34.6065 30.5321 34.6065 30.8441 32.6595C31.1561 30.5797 30.6361 30.093 28.7121 30.5355C27.6721 30.7567 27.3081 31.155 27.1001 32.4382C26.8921 33.3232 26.2161 36.465 25.4881 39.4297C24.7601 42.4387 24.2921 45.0495 24.5001 45.315C24.8641 45.846 26.3201 45.8902 27.2041 45.4035C27.5161 45.2265 28.2961 43.1467 28.8681 40.7572C30.0121 35.8455 31.3121 33.7657 33.8081 32.748C35.9401 31.9072 36.8241 31.863 37.6561 32.571C38.5401 33.3232 38.4361 34.164 36.9281 39.9165C36.0441 43.2795 35.7841 45.138 36.0961 45.4035C36.9801 46.1557 39.2681 45.4035 39.5281 44.2972C41.0881 37.9252 41.6081 36.3322 42.5961 35.0932C44.1041 33.1462 46.7561 31.863 48.4201 32.217C50.1361 32.571 50.1361 33.8542 48.4201 40.182C47.7441 42.837 47.2761 45.1822 47.4321 45.3592C47.8481 45.9345 50.1361 45.846 50.6041 45.1822C50.8121 44.9167 51.6441 41.9077 52.4761 38.5447C53.8281 32.8807 53.8801 32.3055 53.1001 31.332C51.3321 28.9867 46.7041 29.6062 43.9481 32.5267L42.2841 34.341L41.6081 32.6152C40.4641 29.8275 38.1241 29.0752 34.9521 30.4912Z" fill="white"/>
<path d="M63.552 30.5355C58.612 31.863 54.4 36.8632 54.4 41.3767C54.4 44.4742 58.3 46.908 61.732 45.9787C62.408 45.8017 64.124 44.6955 65.58 43.5007L68.232 41.3767V43.4565C68.18 45.4035 68.284 45.5362 69.48 45.5362C70.936 45.5362 70.936 45.5805 72.652 38.235C74.264 31.332 74.264 30.4912 72.6 30.447C71.872 30.4027 70.156 30.27 68.7 30.1372C66.984 29.9602 65.268 30.093 63.552 30.5355ZM70.26 32.1285C70.572 32.394 68.596 38.943 67.712 40.3147C66.776 41.9077 65.476 42.9255 63.604 43.5007C56.324 45.8902 57 34.695 64.28 32.0842C65.476 31.6417 69.74 31.686 70.26 32.1285Z" fill="white"/>
<path d="M85.86 30.3585C83.832 30.978 83.052 31.509 81.856 33.1462L80.868 34.4737L81.232 32.3497L81.544 30.27H79.672C78.164 30.27 77.8 30.447 77.592 31.2435C77.488 31.8187 76.76 35.0932 75.98 38.589C74.42 45.315 74.524 46.1115 76.864 45.6247C78.008 45.3592 78.268 44.8725 79.204 40.6687C80.712 34.341 82.116 32.6595 86.64 32.1727C90.644 31.686 91.008 32.9692 89.032 40.4475C88.356 43.014 87.888 45.2265 88.044 45.4035C88.408 45.9787 90.644 45.8017 91.164 45.1822C91.424 44.9167 92.308 41.952 93.088 38.589C94.232 33.81 94.388 32.394 93.92 31.6417C92.88 29.916 89.24 29.3407 85.86 30.3585Z" fill="white"/>
<path d="M103.904 30.447C100.628 31.3762 98.34 33.0577 96.78 35.8012C95.584 37.7925 95.376 38.6775 95.584 40.6687C95.844 43.368 96.884 44.6512 99.484 45.5805C102.708 46.7752 109 46.1557 109 44.6955C109 44.1202 108.428 44.076 105.776 44.253C102.916 44.4742 102.292 44.3857 101.096 43.545C100.056 42.8812 99.64 42.2175 99.64 41.1555V39.6952L103.124 39.4297C110.716 38.8102 115.708 34.518 112.536 31.3762C111.028 29.8717 107.388 29.5177 103.904 30.447ZM109.156 32.5267C110.092 33.8542 109.104 35.5357 106.504 36.9517C104.112 38.235 100.316 39.3855 99.796 38.943C99.64 38.8545 99.9 37.7482 100.42 36.5092C101.564 33.5002 104.216 31.509 106.764 31.686C107.804 31.7745 108.844 32.1285 109.156 32.5267Z" fill="white"/>
<path d="M122.364 30.447C116.852 31.7302 113.16 35.403 113.16 39.6952C113.16 42.2175 114.2 43.9875 116.436 45.0937C118.36 46.0672 124.028 46.5097 125.588 45.8017C127.46 44.9167 126.628 44.253 123.768 44.3415C120.7 44.4742 118.048 43.2795 117.528 41.5537C117.008 39.7395 117.632 36.465 118.724 35.1817C120.7 32.925 122.884 32.04 126.472 32.04C129.384 32.04 129.8 31.9515 129.8 31.1992C129.8 29.7832 126.68 29.4735 122.364 30.447Z" fill="white"/>
<path d="M137.08 30.2257C131.568 31.6417 128.032 35.4915 128.032 40.0492C127.98 42.9697 129.072 44.6512 131.62 45.5805C134.012 46.4212 139.16 46.377 140.616 45.492C142.644 44.2972 141.968 43.9875 138.172 44.253C134.792 44.5185 134.48 44.4742 133.232 43.4122C132.4 42.7042 131.88 41.775 131.88 40.9785C131.88 39.6952 131.932 39.6952 135.364 39.4297C142.748 38.8102 147.584 35.0932 145.4 31.5975C144.464 30.1372 140.252 29.4292 137.08 30.2257ZM141.76 32.4825C142.54 33.7215 142.02 34.872 140.044 36.288C138.328 37.527 136.352 38.3235 133.856 38.8545C132.608 39.12 132.4 38.9872 132.4 38.1465C132.452 36.3322 134.376 33.4117 136.144 32.4825C138.432 31.332 141.032 31.332 141.76 32.4825Z" fill="white"/>
<path d="M149.56 30.7125C148.572 30.8895 148.208 31.2878 148.104 32.2613C148 33.279 146.128 41.1998 145.296 44.4743C145.192 44.7398 145.556 45.1823 146.076 45.4478C147.584 46.3328 148.728 45.2708 149.404 42.3945C151.12 35.5358 152.264 33.8543 155.696 32.8808C158.036 32.2613 158.92 31.686 158.92 30.8895C158.92 30.4913 158.348 30.27 157.516 30.27C156.528 30.27 155.436 30.8895 153.668 32.5268C151.172 34.7393 151.172 34.7393 151.692 33.279C152.524 30.7125 152.108 30.1373 149.56 30.7125Z" fill="white"/>
<path d="M25.8001 49.8728C23.2521 50.979 24.0841 53.457 27.4121 54.6075C28.4521 55.0058 28.9201 55.4483 28.9201 56.2005C28.9201 57.4395 27.5681 57.882 24.9681 57.4395C23.4601 57.2183 23.0961 57.2625 23.3041 57.7493C23.6161 58.5458 27.9841 58.8113 29.4401 58.1475C30.1681 57.8378 30.4801 57.2183 30.4801 56.1563C30.4801 54.873 30.2201 54.519 28.2961 53.634C25.1761 52.1738 25.1761 50.8463 28.2961 50.8463C29.7001 50.8463 30.4801 50.6693 30.4801 50.271C30.4801 50.0055 30.1681 49.74 29.8561 49.74C29.4921 49.74 28.7121 49.6073 28.1401 49.5188C27.5681 49.386 26.5281 49.563 25.8001 49.8728Z" fill="white"/>
<path d="M34.276 52.6162C32.872 53.457 32.196 56.0235 33.028 57.528C33.444 58.3245 33.964 58.59 35.16 58.59C37.552 58.59 38.696 57.882 39.372 55.935C39.892 54.4747 39.84 54.0322 39.112 53.0587C38.124 51.7755 36.044 51.5985 34.276 52.6162ZM38.176 54.4747C38.436 56.5545 37.448 57.7935 35.784 57.6165C34.64 57.528 34.328 57.2182 34.224 56.0677C33.964 53.988 34.952 52.749 36.616 52.926C37.76 53.0145 38.072 53.3242 38.176 54.4747Z" fill="white"/>
<path d="M42.7 52.5277C42.596 52.8375 42.284 54.2977 42.024 55.8022C41.66 57.9705 41.712 58.59 42.232 58.59C42.648 58.59 43.012 57.528 43.324 55.8022C43.74 53.1472 43.792 53.0587 45.3 53.0587H46.86L46.756 55.8465C46.652 59.5192 47.744 59.3422 48.316 55.5367L48.784 52.7932L50.396 52.926L52.06 53.0587L51.956 55.8022C51.852 57.3952 52.008 58.59 52.32 58.59C53.204 58.59 53.932 54.3862 53.36 53.0145C52.944 52.0852 52.58 52.041 47.9 52.041C44.572 52.041 42.804 52.218 42.7 52.5277Z" fill="white"/>
<path d="M57.3641 52.749C56.1681 53.8552 55.7001 56.466 56.4281 57.6607C57.1041 58.6785 59.4441 58.944 61.1601 58.1475C62.5641 57.4837 63.3961 54.7402 62.5641 53.3242C61.7321 51.8197 58.7161 51.51 57.3641 52.749ZM61.5761 54.0765C61.6801 54.6517 61.4721 55.7137 61.1081 56.4217C60.6401 57.4837 60.2241 57.705 59.1321 57.6165C58.0401 57.528 57.7281 57.2182 57.6241 56.0677C57.3641 53.988 58.3521 52.749 60.0161 52.926C61.0561 53.0145 61.4721 53.3685 61.5761 54.0765Z" fill="white"/>
<path d="M66.5161 52.2623C65.2161 52.7048 65.7881 54.6075 67.4001 55.404C68.2321 55.8022 68.9601 56.5102 68.9601 56.997C68.9601 57.6607 68.6481 57.7492 66.8801 57.6165C65.5801 57.528 64.8521 57.6165 64.9561 57.9262C65.2161 58.59 68.9081 58.7227 69.7921 58.1032C71.0401 57.2182 70.6241 55.9792 68.7001 54.9615C66.5161 53.8995 66.5681 53.103 68.8561 52.926C69.7921 52.8375 70.5201 52.6163 70.5201 52.3508C70.5201 51.9525 67.6601 51.864 66.5161 52.2623Z" fill="white"/>
<path d="M78.9961 52.3065C78.1121 52.7932 76.7601 61.245 77.5401 61.245C77.9041 61.245 78.3201 60.6255 78.5281 59.9175C78.7881 58.767 79.0481 58.59 80.6081 58.59C81.9081 58.59 82.6881 58.2802 83.4681 57.4395C84.6641 56.112 84.9241 53.3242 83.9361 52.4835C83.2601 51.9082 79.9841 51.7755 78.9961 52.3065ZM83.0521 53.8995C83.9361 55.5367 82.6881 57.4395 80.5041 57.6165L78.8401 57.7492L79.1521 55.8465C79.6201 53.0145 79.7241 52.8375 81.1801 52.8375C82.0641 52.8375 82.6881 53.1915 83.0521 53.8995Z" fill="white"/>
<path d="M87.9401 52.4835C87.8361 52.7932 87.5241 54.2977 87.2641 55.8022C86.9001 57.9705 86.9521 58.59 87.4721 58.59C87.8881 58.59 88.2521 57.7492 88.4601 56.466C88.9801 53.1915 89.1881 52.8375 90.5921 52.8375C91.2681 52.8375 91.8401 52.6162 91.8401 52.395C91.8401 51.7312 88.2001 51.864 87.9401 52.4835Z" fill="white"/>
<path d="M93.9721 53.103C92.7761 54.4305 92.5161 57.2183 93.5041 58.059C94.6481 59.0325 97.4041 58.6785 98.5481 57.4395C99.7441 56.112 100.004 53.3243 99.0161 52.4835C97.8721 51.51 95.1161 51.864 93.9721 53.103ZM98.3921 53.8995C98.8601 55.5368 97.5601 57.4395 95.8961 57.6165C94.3361 57.7935 93.6081 56.5988 94.2321 54.9173C94.7521 53.4128 95.4801 52.8375 96.8321 52.8375C97.7161 52.8375 98.1321 53.1473 98.3921 53.8995Z" fill="white"/>
<path d="M103.332 52.7932C100.732 55.0057 101.772 58.59 105.048 58.59C106.556 58.59 106.764 58.7227 106.556 59.475C106.348 60.183 105.828 60.36 104.268 60.36C101.98 60.36 100.94 61.2007 103.124 61.3335C105.62 61.422 106.66 61.245 107.232 60.537C107.96 59.7405 109.208 53.0145 108.74 52.395C108.168 51.5985 104.372 51.9082 103.332 52.7932ZM107.44 53.8995C107.44 54.4747 107.284 55.581 107.128 56.3332C106.816 57.6165 106.608 57.7492 105.152 57.6165C103.748 57.4837 103.54 57.3067 103.384 56.0235C103.176 54.2535 104.424 52.8375 106.244 52.8375C107.18 52.8375 107.44 53.103 107.44 53.8995Z" fill="white"/>
<path d="M112.432 52.3065C112.328 52.4835 112.068 53.4127 111.86 54.3862C111.704 55.3597 111.392 56.6872 111.288 57.351C111.08 58.2802 111.184 58.59 111.756 58.59C112.328 58.59 112.64 57.8377 112.9 55.7137C113.264 52.926 113.316 52.8375 114.772 52.8375C115.604 52.8375 116.28 52.6162 116.28 52.395C116.28 51.864 112.848 51.7755 112.432 52.3065Z" fill="white"/>
<path d="M118.776 52.395C117.528 53.0587 116.644 55.9792 117.32 57.4395C117.736 58.413 118.152 58.59 119.868 58.59C122.572 58.59 123.144 57.7935 120.596 57.6165C119.036 57.528 118.568 57.3067 118.464 56.5102C118.308 55.6695 118.568 55.5367 120.492 55.404C123.04 55.2712 124.184 54.2092 123.248 52.926C122.572 52.041 120.076 51.7312 118.776 52.395ZM122.416 53.5897C122.676 54.2977 120.232 55.2712 119.14 54.873C118.464 54.696 118.412 54.4305 118.88 53.7225C119.504 52.7047 122 52.6162 122.416 53.5897Z" fill="white"/>
<path d="M126.836 52.2623C125.536 52.7048 126.108 54.6075 127.72 55.404C128.552 55.8022 129.28 56.5102 129.28 56.997C129.28 57.6607 128.968 57.7492 127.2 57.6165C125.9 57.528 125.172 57.6165 125.276 57.9262C125.536 58.59 129.228 58.7227 130.112 58.1032C131.36 57.2182 130.944 55.9792 129.02 54.9615C126.836 53.8995 126.888 53.103 129.176 52.926C130.112 52.8375 130.84 52.6163 130.84 52.3508C130.84 51.9525 127.98 51.864 126.836 52.2623Z" fill="white"/>
<path d="M134.584 52.8817C133.128 54.165 132.764 56.289 133.7 57.5722C134.844 59.0325 137.704 58.9882 139.108 57.4395C140.408 56.0235 140.512 53.634 139.368 52.6605C138.224 51.687 135.728 51.7755 134.584 52.8817ZM138.536 54.4747C138.796 56.5545 137.808 57.7935 136.144 57.6165C135.052 57.528 134.688 57.2182 134.584 56.2447C134.324 54.519 135.78 52.749 137.236 52.926C138.12 53.0145 138.432 53.4127 138.536 54.4747Z" fill="white"/>
</g>
<defs>
<filter id="filter0_dd_63_153" x="0.0236816" y="0.649567" width="162.896" height="68.705" filterUnits="userSpaceOnUse" color-interpolation-filters="sRGB">
<feFlood flood-opacity="0" result="BackgroundImageFix"/>
<feColorMatrix in="SourceAlpha" type="matrix" values="0 0 0 0 0 0 0 0 0 0 0 0 0 0 0 0 0 0 127 0" result="hardAlpha"/>
<feOffset dy="4"/>
<feGaussianBlur stdDeviation="2"/>
<feComposite in2="hardAlpha" operator="out"/>
<feColorMatrix type="matrix" values="0 0 0 0 0 0 0 0 0 0 0 0 0 0 0 0 0 0 0.25 0"/>
<feBlend mode="normal" in2="BackgroundImageFix" result="effect1_dropShadow_63_153"/>
<feColorMatrix in="SourceAlpha" type="matrix" values="0 0 0 0 0 0 0 0 0 0 0 0 0 0 0 0 0 0 127 0" result="hardAlpha"/>
<feOffset dy="4"/>
<feGaussianBlur stdDeviation="2"/>
<feComposite in2="hardAlpha" operator="out"/>
<feColorMatrix type="matrix" values="0 0 0 0 0 0 0 0 0 0 0 0 0 0 0 0 0 0 0.25 0"/>
<feBlend mode="normal" in2="effect1_dropShadow_63_153" result="effect2_dropShadow_63_153"/>
<feBlend mode="normal" in="SourceGraphic" in2="effect2_dropShadow_63_153" result="shape"/>
</filter>
</defs>
</svg>
